<svg xmlns="http://www.w3.org/2000/svg" xmlns:xlink="http://www.w3.org/1999/xlink" width="113" height="95" viewBox="0 0 113 95">
    <defs>
        <path id="8fvf76r2sa" d="M0 0.284L26.848 0.284 26.848 38.007 0 38.007z"/>
    </defs>
    <g fill="none" fill-rule="evenodd">
        <g>
            <g>
                <path fill="#231F20" d="M41.416 89L41.416 91.691 38.588 91.691 38.588 89 38 89 38 95 38.588 95 38.588 92.264 41.416 92.264 41.416 95 42 95 42 89zM45 89L45 95 48 95 48 94.419 45.572 94.419 45.572 92.284 48 92.284 48 91.691 45.572 91.691 45.572 89.589 48 89.589 48 89zM52.608 89L50 95h.698l.804-1.884h2.99l.8 1.884H56l-2.598-6h-.794zm.38.563l1.27 3.014h-2.532l1.261-3.014zM58 89L58 95 61 95 61 94.419 58.658 94.419 58.658 89zM63 89L63 89.589 64.204 89.589 64.204 95 64.796 95 64.796 89.589 66 89.589 66 89zM72.416 89L72.416 91.691 69.588 91.691 69.588 89 69 89 69 95 69.588 95 69.588 92.264 72.416 92.264 72.416 95 73 95 73 89z" transform="translate(-76 -12) translate(76 12)"/>
                <g>
                    <path fill="#4C4C4E" d="M72.072 45.894s-6.297-3.509-9.654-5.403c-3.358-1.894-3.988-6.314-3.988-6.314v-9.574l11.613 7.048c2.029 1.333 2.029 4.981 2.029 4.981v9.262zm-22.176-17.26l-9.304 5.357v-8.023c0-5.964 5.317-7.998 5.317-7.998l8.394-4.587v10.21c-1.253 3.667-4.407 5.04-4.407 5.04zm20.636-1.754L58.43 19.782V.055l-4.127 2.596v5.594c-1.986 1.08-7.824 4.269-12.172 6.848-6.506 3.859-6.016 9.823-6.016 9.823v16.768l18.188-10.568v2.78c0 7.367 6.086 10.524 6.086 10.524l16.16 8.84v-17.4c-.21-6.173-6.017-8.98-6.017-8.98z" transform="translate(-76 -12) translate(76 12)"/>
                    <g transform="translate(-76 -12) translate(76 12) translate(0 46.02)">
                        <mask id="609vsfk21b" fill="#fff">
                            <use xlink:href="#8fvf76r2sa"/>
                        </mask>
                        <path fill="#0091C7" d="M13.454 32.669c1.116 0 2.162-.21 3.14-.63.976-.42 1.832-.998 2.571-1.738.737-.74 1.315-1.61 1.734-2.61.418-.998.628-2.058.628-3.178 0-1.119-.21-2.168-.628-3.149-.419-.979-.997-1.838-1.734-2.578-.739-.74-1.595-1.32-2.572-1.74-.977-.42-2.023-.63-3.139-.63H5.322v8.097c0 1.12.209 2.18.628 3.178.418 1 .996 1.87 1.734 2.61.737.74 1.604 1.318 2.601 1.738.996.42 2.053.63 3.169.63m5.233-20.54c1.614.7 3.028 1.66 4.245 2.878 1.216 1.22 2.172 2.639 2.87 4.258.697 1.62 1.046 3.369 1.046 5.248 0 1.84-.349 3.579-1.045 5.217-.699 1.64-1.655 3.08-2.871 4.319-1.217 1.24-2.63 2.21-4.245 2.908-1.615.7-3.36 1.05-5.233 1.05-1.834 0-3.568-.35-5.202-1.05-1.635-.699-3.07-1.668-4.305-2.908-1.237-1.24-2.204-2.678-2.9-4.319C.348 28.092 0 26.352 0 24.513V.283h5.322V11.08h8.132c1.873 0 3.618.35 5.233 1.05" mask="url(#609vsfk21b)"/>
                    </g>
                    <path fill="#0091C7" d="M99.26 78.569c1.116 0 2.162-.21 3.14-.63.976-.42 1.833-.998 2.571-1.738.737-.74 1.316-1.609 1.733-2.61.42-.998.63-2.058.63-3.178v-8.096H99.26c-1.117 0-2.173.21-3.17.63-.997.419-1.863.999-2.601 1.738-.738.741-1.315 1.6-1.734 2.58-.418.98-.628 2.03-.628 3.148 0 1.12.21 2.18.628 3.179.42 1 .996 1.87 1.734 2.609.738.74 1.604 1.319 2.601 1.738.997.42 2.053.63 3.17.63zm13.395-32.385v24.23c0 1.838-.349 3.578-1.046 5.217-.699 1.64-1.655 3.079-2.871 4.318-1.215 1.239-2.64 2.21-4.275 2.908-1.635.7-3.37 1.05-5.202 1.05-1.834 0-3.569-.35-5.203-1.05-1.635-.698-3.07-1.669-4.305-2.908-1.236-1.24-2.203-2.678-2.9-4.318-.698-1.64-1.047-3.379-1.047-5.218 0-1.879.349-3.628 1.047-5.247.697-1.62 1.664-3.038 2.9-4.259 1.235-1.219 2.67-2.178 4.305-2.879 1.634-.699 3.369-1.049 5.203-1.049h8.072V46.184h5.322z" transform="translate(-76 -12) translate(76 12)"/>
                    <path fill="#4C4C4E" d="M63.484 73.47c-.41-.98-.616-2.02-.616-3.12 0-1.098.205-2.128.616-3.09.41-.961.978-1.805 1.702-2.531.724-.726 1.575-1.295 2.554-1.708.977-.411 2.014-.618 3.11-.618 1.095 0 2.132.207 3.111.618.977.413 1.829.982 2.553 1.708s1.291 1.57 1.702 2.531c.309.723.501 1.483.578 2.282.046.061.092.121.136.19 3.132 4.246.696 10.47.696 10.47l.017.001c.18-.163.366-.319.54-.493 1.212-1.215 2.16-2.628 2.846-4.238.684-1.608 1.027-3.316 1.027-5.121 0-1.845-.343-3.562-1.027-5.151-.685-1.59-1.634-2.983-2.846-4.18-1.214-1.196-2.612-2.138-4.197-2.825-1.585-.686-3.297-1.03-5.136-1.03-1.8 0-3.502.344-5.106 1.03-1.605.687-3.004 1.63-4.197 2.826-3.752 8.218 1.937 12.45 1.937 12.45" transform="translate(-76 -12) translate(76 12)"/>
                    <path fill="#0091C7" d="M79.075 80.552s2.436-6.225-.696-10.472c-.044-.067-.09-.128-.136-.189.026.265.039.535.039.809 0 1.099-.206 2.139-.617 3.12-.41.981-.979 1.834-1.702 2.56-.724.727-1.576 1.295-2.553 1.707-.978.412-2.016.618-3.111.618-1.096 0-2.133-.206-3.11-.618-.979-.412-1.83-.98-2.554-1.707-.724-.726-1.291-1.579-1.702-2.56 0 0-5.69-4.232-1.937-12.45-1.194 1.197-2.133 2.59-2.817 4.179-.685 1.59-1.027 3.306-1.027 5.15 0 1.806.342 3.514 1.027 5.122.684 1.61 1.623 3.023 2.817 4.238 1.193 1.217 2.592 2.17 4.197 2.856 1.604.687 3.306 1.03 5.106 1.03 1.84 0 3.55-.343 5.136-1.03 1.358-.589 2.572-1.384 3.657-2.363h-.017z" transform="translate(-76 -12) translate(76 12)"/>
                    <path fill="#4C4C4E" d="M34.876 73.47c-.41-.98-.616-2.02-.616-3.12 0-1.098.206-2.128.616-3.09.411-.961.978-1.805 1.703-2.531.723-.726 1.574-1.295 2.553-1.708.977-.411 2.015-.618 3.11-.618 1.095 0 2.133.207 3.111.618.978.413 1.83.982 2.553 1.708.724.726 1.292 1.57 1.702 2.531.31.723.502 1.483.578 2.282.046.061.092.121.136.19 3.133 4.246.697 10.47.697 10.47l.016.001c.18-.163.366-.319.54-.493 1.212-1.215 2.161-2.628 2.846-4.238.685-1.608 1.028-3.316 1.028-5.121 0-1.845-.343-3.562-1.028-5.151-.685-1.59-1.634-2.983-2.846-4.18-1.213-1.196-2.612-2.138-4.197-2.825-1.585-.686-3.297-1.03-5.136-1.03-1.8 0-3.502.344-5.106 1.03-1.605.687-3.003 1.63-4.197 2.826-3.752 8.218 1.937 12.45 1.937 12.45" transform="translate(-76 -12) translate(76 12)"/>
                    <path fill="#0091C7" d="M50.468 80.552s2.436-6.225-.697-10.472c-.044-.067-.09-.128-.136-.189.026.265.039.535.039.809 0 1.099-.206 2.139-.617 3.12-.41.981-.978 1.834-1.702 2.56-.724.727-1.575 1.295-2.552 1.707-.98.412-2.017.618-3.111.618-1.097 0-2.133-.206-3.111-.618-.979-.412-1.83-.98-2.553-1.707-.725-.726-1.292-1.579-1.703-2.56 0 0-5.689-4.232-1.937-12.45-1.193 1.197-2.133 2.59-2.817 4.179-.685 1.59-1.027 3.306-1.027 5.15 0 1.806.342 3.514 1.027 5.122.684 1.61 1.624 3.023 2.817 4.238 1.194 1.217 2.592 2.17 4.197 2.856 1.604.687 3.306 1.03 5.107 1.03 1.838 0 3.55-.343 5.135-1.03 1.359-.589 2.572-1.384 3.657-2.363h-.016z" transform="translate(-76 -12) translate(76 12)"/>
                </g>
            </g>
        </g>
    </g>
</svg>
